nColumns=19
nRows=23
DataType=double
version=2
endheader
time	ground_force_1_vx	ground_force_1_vy	ground_force_1_vz	ground_force_1_px	ground_force_1_py	ground_force_1_pz	ground_moment_1_mx	ground_moment_1_my	ground_moment_1_mz	ground_force_2_vx	ground_force_2_vy	ground_force_2_vz	ground_force_2_px	ground_force_2_py	ground_force_2_pz	ground_moment_2_mx	ground_moment_2_my	ground_moment_2_mz
4.455	0	0	0	0.2896689257621765	0.004618922591209411	0.1935678634643555	0	0	0	-55.27268174879011	718.4859400712419	-21.25279817548372	0.8971371713857533	0.001671585667170523	0.2507316343028693	0.001137757191768166	-2.815563781276576	-0.02408131986257459
4.456	0	0	0	0.2896689257621765	0.004618922591209411	0.1935678634643555	0	0	0	-55.487139598292	718.090136673593	-21.68679772744467	0.8969469990375084	0.001671985678838888	0.2506758803686959	0.001141560247887843	-2.82497505737854	-0.02416181384805399
4.457	0	0	0	0.2896689257621765	0.004618922591209411	0.1935678634643555	0	0	0	-55.70149798413715	717.6942124886896	-22.12094311712912	0.896756816455621	0.00167238578438953	0.2506201149743974	0.001145367940677757	-2.834397807669266	-0.02424240597146639
4.458	0	0	0	0.2896689257621765	0.004618922591209411	0.1935678634643555	0	0	0	-55.91585255834732	717.2982882889612	-22.55508659341006	0.8965666336292012	0.001672785857219028	0.2505643533942688	0.001149175732120228	-2.843820802091667	-0.02432300018291992
4.459000000000001	0	0	0	0.2896689257621765	0.004618922591209411	0.1935678634643555	0	0	0	-56.13020712950042	716.9023641055468	-22.98923197696741	0.8963764510350856	0.001673185897513522	0.2505085956290759	0.001152983326257584	-2.853243308250717	-0.0244035902182912
4.46	0	0	0	0.2896689257621765	0.004618922591209411	0.1935678634643555	0	0	0	-56.34462641570092	716.5063794512042	-23.42344664864648	0.8961862300862017	0.001673586085964356	0.2504528187294651	0.00115679141365773	-2.862667035068146	-0.02448419069386811
4.461	0	0	0	0.2896689257621765	0.004618922591209411	0.1935678634643555	0	0	0	-56.99077573017653	716.6050473275556	-23.10083027096314	0.8961286283654282	0.001674128840695442	0.2503866389127389	0.001147764704579898	-2.840328986732747	-0.02429313493066799
4.462	0	0	0	0.2896689257621765	0.004618922591209411	0.1935678634643555	0	0	0	-57.63692504465216	716.7037152039068	-22.7782138932798	0.8960710267042592	0.001674671595449794	0.2503204590961085	0.001138737896849507	-2.817990694265672	-0.02410207707942675
4.463	0	0	0	0.2896689257621765	0.004618922591209411	0.1935678634643555	0	0	0	-58.28307051671552	716.8023220651423	-22.45559993875606	0.8960134249834857	0.00167521435018088	0.2502542792793823	0.001129711089119117	-2.795652401798597	-0.02391101922818551
4.464	0	0	0	0.2896689257621765	0.004618922591209411	0.1935678634643555	0	0	0	-58.92921983119114	716.9009899414937	-22.13298356107273	0.8959558232688263	0.00167575713754004	0.2501880956481033	0.001120684281388726	-2.773314109331521	-0.02371996137694426
4.465	0	0	0	0.2896689257621765	0.004618922591209411	0.1935678634643555	0	0	0	-59.57536529123285	716.9996580314165	-21.81039197185566	0.8958982188062429	0.001676299891200837	0.2501219158269733	0.001111659249404383	-2.75098021123461	-0.02352894111044332
4.466	0	0	0	0.2896689257621765	0.004618922591209411	0.1935678634643555	0	0	0	-60.22033281278082	716.7021901721766	-22.13677825933985	0.8957675817320432	0.001676555055406539	0.2500859101440837	0.001147280221866442	-2.839130056072909	-0.02428288056068902
4.467000000000001	0	0	0	0.2896689257621765	0.004618922591209411	0.1935678634643555	0	0	0	-60.86530035899193	716.4047833458558	-22.46316402481376	0.8956369445921248	0.0016768101869609	0.2500499082756512	0.001182901292981059	-2.927280145042883	-0.02503682209897586
4.468	0	0	0	0.2896689257621765	0.004618922591209411	0.1935678634643555	0	0	0	-61.5102640689049	716.1073154717909	-22.78954839889445	0.8955063074820087	0.001677065318526894	0.2500139064072666	0.001218522265443117	-3.015429989881182	-0.02579076154922156
4.469	0	0	0	0.2896689257621765	0.004618922591209411	0.1935678634643555	0	0	0	-62.15523159045288	715.809847612551	-23.11593468637864	0.8953756703631055	0.001677320482715146	0.2499779007243052	0.001254143237905175	-3.10357983471948	-0.02654470099946727
4.47	0	0	0	0.2896689257621765	0.004618922591209411	0.1935678634643555	0	0	0	-62.80003526102264	715.5125011816765	-23.44223765349154	0.8952450657326988	0.001677575561708484	0.2499419065372142	0.001289755430289551	-3.191707951838633	-0.02729845461405259
4.471	0	0	0	0.2896689257621765	0.004618922591209411	0.1935678634643555	0	0	0	-63.1227527109469	715.1119997820987	-23.44624930615973	0.8950869128987117	0.001677878972156322	0.2498989599297209	0.001275620294441573	-3.156728277067128	-0.02699927590516911
4.472	0	0	0	0.2896689257621765	0.004618922591209411	0.1935678634643555	0	0	0	-63.44539779177652	714.7114978235081	-23.4501921804623	0.8949287542891963	0.001678182412975322	0.2498560094983884	0.001261474701422423	-3.121722724337988	-0.02669987586392607
4.473	0	0	0	0.2896689257621765	0.004618922591209411	0.1935678634643555	0	0	0	-63.76804287260614	714.3109958649176	-23.45413505476488	0.8947705956996437	0.001678485821176427	0.2498130628816506	0.001247329009750715	-3.086716927477174	-0.0264004737346419
4.474	0	0	0	0.2896689257621765	0.004618922591209411	0.1935678634643555	0	0	0	-64.09069176812781	713.9104939048381	-23.45807793519455	0.8946124370802887	0.001678789229365899	0.2497701162648649	0.001233183416731565	-3.051711374748034	-0.02610107369339885
4.475000000000001	0	0	0	0.2896689257621765	0.004618922591209411	0.1935678634643555	0	0	0	-64.41333684895741	713.5099919462476	-23.46202080949713	0.8944542784670478	0.001679092670183445	0.2497271658335264	0.001219037823712415	-3.016705822018895	-0.02580167365215581
4.476	0	0	0	0.2896689257621765	0.004618922591209411	0.1935678634643555	0	0	0	-65.38165655133007	713.2098766431587	-23.35855567581894	0.8942373812981768	0.001679403784823328	0.2496805429975671	0.001194845256858241	-2.956837411163267	-0.02528962332636822
4.477	0	0	0	0.2896689257621765	0.004618922591209411	0.1935678634643555	0	0	0	-66.35010601763757	712.9098221102771	-23.25506543385827	0.8940204718033893	0.001679714959903063	0.249633912512685	0.001170650618300345	-2.896963873542447	-0.02477752915171694
